<svg width="1920" height="6480" viewBox="0 0 1920 6480" fill="none" xmlns="http://www.w3.org/2000/svg">
<g clip-path="url(#clip0_1_3)">
<rect width="1920" height="6480" fill="black"/>
<path d="M2 5402H1918V6478H2V5402Z" stroke="white" stroke-width="4"/>
<path d="M2 4328H1918V5404H2V4328Z" stroke="white" stroke-width="4"/>
<path d="M2 3242H1918V4318H2V3242Z" stroke="white" stroke-width="4"/>
<path d="M3 2156H1919V3232H3V2156Z" stroke="white" stroke-width="4"/>
<path d="M0 1086H1920V2166H0V1086Z" fill="black"/>
<path d="M5.12384 6.30762H1925.12V1086.31H5.12384V6.30762Z" fill="black"/>
<path d="M2088.57 1053L3205.04 2226.12L2300.47 3087.01L1184 1913.88L2088.57 1053Z" fill="#9B03F8"/>
<path d="M2269 684L3005.02 1457.36L1920.18 2489.81L1184.16 1716.45L2269 684Z" fill="#D9D9D9"/>
<path d="M127.752 -117L939.929 736.39L5.17772 1626L-807 772.61L127.752 -117Z" fill="#9B03F8"/>
<path d="M394.553 -440L1119.29 321.507L-62.2682 1446L-787 684.493L394.553 -440Z" fill="#D9D9D9"/>
</g>
<defs>
<clipPath id="clip0_1_3">
<rect width="1920" height="6480" fill="white"/>
</clipPath>
</defs>
</svg>
