<svg xmlns="http://www.w3.org/2000/svg" xmlns:xlink="http://www.w3.org/1999/xlink" viewBox="0,0,256,256" width="32px" height="32px" fill-rule="nonzero" fill="#ffffff"><g fill="#ffffff" fill-rule="nonzero" stroke="none" stroke-width="1" stroke-linecap="butt" stroke-linejoin="miter" stroke-miterlimit="10" stroke-dasharray="" stroke-dashoffset="0" font-family="none" font-weight="none" font-size="none" text-anchor="none" style="mix-blend-mode: normal"><g transform="scale(8,8)"><path d="M16,3c-3.79907,0 -7.24624,1.12616 -9.79102,2.99414c-2.54478,1.86798 -4.20898,4.53406 -4.20898,7.50586c0,3.66123 2.48407,6.69689 6,8.55469v6.96094l6.71094,-5.0957c0.34517,0.02522 0.71601,0.08008 1.28906,0.08008c3.79907,0 7.24624,-1.12616 9.79102,-2.99414c2.54478,-1.86798 4.20898,-4.53406 4.20898,-7.50586c0,-2.97179 -1.6642,-5.63788 -4.20898,-7.50586c-2.54478,-1.86798 -5.99194,-2.99414 -9.79102,-2.99414zM16,5c3.40093,0 6.4522,1.02344 8.60742,2.60547c2.15522,1.58202 3.39258,3.66633 3.39258,5.89453c0,2.22821 -1.23736,4.31251 -3.39258,5.89453c-2.15522,1.58202 -5.2065,2.60547 -8.60742,2.60547c-0.48889,0 -0.96628,-0.09961 -1.59961,-0.09961h-0.33789l-4.0625,3.08398v-4.11719l-0.57227,-0.27148c-3.35811,-1.58577 -5.42773,-4.16629 -5.42773,-7.0957c0,-2.22821 1.23736,-4.31251 3.39258,-5.89453c2.15522,-1.58202 5.2065,-2.60547 8.60742,-2.60547z"></path></g></g></svg>