<svg xmlns="http://www.w3.org/2000/svg"  viewBox="0 0 32 32" width="32px" height="32px"><path d="M 16 3 C 12.200926 3 8.7537636 4.1261644 6.2089844 5.9941406 C 3.6642051 7.8621169 2 10.528205 2 13.5 C 2 17.161225 4.48407 20.196885 8 22.054688 L 8 29.015625 L 14.710938 23.919922 C 15.056104 23.945138 15.426949 24 16 24 C 19.799074 24 23.246236 22.873836 25.791016 21.005859 C 28.335795 19.137883 30 16.471795 30 13.5 C 30 10.528205 28.335795 7.8621169 25.791016 5.9941406 C 23.246236 4.1261644 19.799074 3 16 3 z M 16 5 C 19.400926 5 22.452201 6.0234449 24.607422 7.6054688 C 26.762643 9.1874924 28 11.271795 28 13.5 C 28 15.728205 26.762643 17.812507 24.607422 19.394531 C 22.452201 20.976555 19.400926 22 16 22 C 15.511111 22 15.033724 21.900391 14.400391 21.900391 L 14.0625 21.900391 L 10 24.984375 L 10 20.867188 L 9.4277344 20.595703 C 6.069628 19.009931 4 16.429412 4 13.5 C 4 11.271795 5.2373574 9.1874925 7.3925781 7.6054688 C 9.5477989 6.023445 12.599074 5 16 5 z"/></svg>