<svg width="1024" height="1024" viewBox="0 0 1024 1024" fill="none" xmlns="http://www.w3.org/2000/svg">
<path d="M481.85 655C493.243 655 498.939 648.896 498.939 636.689V323.213C498.939 311.006 493.243 304.902 481.85 304.902H396.645C321.775 304.902 271.156 320.039 244.789 350.312C218.259 380.586 204.994 423.636 204.994 479.463C204.994 535.29 218.259 578.503 244.789 609.102C271.156 639.701 321.775 655 396.645 655H481.85ZM427.65 594.453H401.283C350.827 594.453 318.194 585.094 303.383 566.377C288.572 547.497 281.166 518.525 281.166 479.463C281.166 440.4 288.572 411.592 303.383 393.037C318.194 374.32 350.827 364.961 401.283 364.961H427.65V594.453Z" fill="white"/>
<path d="M534.137 655C521.116 655 514.605 648.896 514.605 636.689V323.213C514.605 311.006 521.116 304.902 534.137 304.902H617.145C679.645 304.902 721.799 312.633 743.609 328.096C765.582 343.395 776.568 366.995 776.568 398.896C776.568 421.195 768.349 438.447 751.91 450.654C735.634 462.861 719.846 469.941 704.547 471.895V472.627C719.358 473.604 736.773 481.09 756.793 495.088C776.812 509.085 786.822 528.861 786.822 554.414C786.822 584.362 774.615 608.613 750.201 627.168C725.787 645.723 685.504 655 629.352 655H534.137ZM585.895 595.43H621.539C656.044 595.43 679.482 592.419 691.852 586.396C704.384 580.374 710.65 568.167 710.65 549.775C710.65 532.523 703.408 520.641 688.922 514.131C674.599 507.458 652.138 504.121 621.539 504.121H585.895V595.43ZM585.895 446.504H617.877C638.873 446.504 658.486 442.842 676.715 435.518C695.107 428.193 704.303 416.8 704.303 401.338C704.303 389.294 699.176 380.179 688.922 373.994C678.831 367.646 655.149 364.473 617.877 364.473H585.895V446.504Z" fill="white"/>
</svg>
