<svg xmlns="http://www.w3.org/2000/svg"  viewBox="0 0 48 48" width="48px" height="48px" baseProfile="basic"><linearGradient id="Xk6aLMi7AGYfmnWMGG1ewa" x1="35.454" x2="5.348" y1="-1.766" y2="80.951" gradientUnits="userSpaceOnUse"><stop offset="0" stop-color="#262626" stop-opacity="0"/><stop offset="1" stop-color="#262626" stop-opacity=".8"/></linearGradient><path fill="url(#Xk6aLMi7AGYfmnWMGG1ewa)" d="M42,21.35V37c0,3.31-2.69,6-6,6H6V21.35c0.49-0.08,0.98-0.25,1.43-0.53L24,10.69l16.57,10.13	C41.02,21.1,41.51,21.27,42,21.35z"/><linearGradient id="Xk6aLMi7AGYfmnWMGG1ewb" x1="9.233" x2="35.197" y1="-6.572" y2="64.765" gradientUnits="userSpaceOnUse"><stop offset="0" stop-color="#262626" stop-opacity="0"/><stop offset="1" stop-color="#262626" stop-opacity=".8"/></linearGradient><path fill="url(#Xk6aLMi7AGYfmnWMGG1ewb)" d="M30,43H18V28c0-1.657,1.343-3,3-3h9V43z"/><linearGradient id="Xk6aLMi7AGYfmnWMGG1ewc" x1="27.503" x2="40.509" y1="-16.594" y2="19.137" gradientUnits="userSpaceOnUse"><stop offset="0" stop-color="#262626" stop-opacity="0"/><stop offset="1" stop-color="#262626" stop-opacity=".8"/></linearGradient><path fill="url(#Xk6aLMi7AGYfmnWMGG1ewc)" d="M39,4v9.17L33,9.5V6c0-1.1,0.9-2,2-2H39z"/><linearGradient id="Xk6aLMi7AGYfmnWMGG1ewd" x1="30.287" x2="21.732" y1="-17.627" y2="30.89" gradientUnits="userSpaceOnUse"><stop offset="0" stop-color="#262626" stop-opacity="0"/><stop offset="1" stop-color="#262626" stop-opacity=".8"/></linearGradient><path fill="url(#Xk6aLMi7AGYfmnWMGG1ewd)" d="M24,4L1.037,18.029l0.893,1.46c1.152,1.884,3.613,2.477,5.498,1.326L24,10.69l16.572,10.125	c1.884,1.151,4.345,0.558,5.498-1.326l0.893-1.46L24,4z"/></svg>